<?xml version="1.0" standalone="no"?>
<!DOCTYPE svg PUBLIC "-//W3C//DTD SVG 20010904//EN"
 "http://www.w3.org/TR/2001/REC-SVG-20010904/DTD/svg10.dtd">
<svg version="1.0" xmlns="http://www.w3.org/2000/svg"
 width="512.000000pt" height="512.000000pt" viewBox="0 0 512.000000 512.000000"
 preserveAspectRatio="xMidYMid meet">
<metadata>
Created by potrace 1.11, written by Peter Selinger 2001-2013
</metadata>
<g transform="translate(0.000000,512.000000) scale(0.100000,-0.100000)"
fill="#000000" stroke="none">
<path d="M2317 5104 c-43 -7 -124 -27 -180 -44 -433 -133 -721 -370 -815 -670
-44 -140 -57 -250 -57 -515 0 -203 3 -262 17 -316 17 -65 17 -69 -4 -125 -64
-183 24 -479 161 -540 43 -19 48 -27 57 -83 3 -20 23 -88 44 -151 80 -246 184
-419 344 -572 l70 -68 -21 -43 c-29 -60 -111 -146 -176 -185 -50 -30 -165 -75
-220 -86 -12 -3 -56 -12 -97 -21 -89 -20 -82 -18 -245 -50 -467 -93 -685 -190
-834 -370 -62 -74 -106 -174 -145 -325 -37 -145 -47 -198 -61 -320 -3 -30 -8
-73 -10 -94 -3 -21 -7 -80 -11 -130 -3 -50 -7 -100 -9 -112 -2 -11 0 -26 4
-32 6 -11 340 -72 528 -97 15 -2 75 -10 133 -19 58 -8 121 -17 140 -20 19 -2
89 -11 155 -20 66 -8 144 -17 173 -21 209 -21 339 -33 432 -40 47 -3 110 -7
140 -10 346 -28 1069 -28 1420 0 25 2 87 7 138 10 52 4 103 8 115 10 12 2 60
6 107 10 47 3 99 8 115 10 17 2 59 7 95 10 90 9 114 12 290 35 231 31 233 31
260 35 14 2 50 6 80 10 30 4 164 24 298 46 134 21 245 39 247 39 2 0 2 19 0
42 -2 24 -6 81 -10 128 -15 207 -16 221 -36 340 -14 82 -65 278 -92 350 -58
156 -196 293 -386 381 -133 62 -322 113 -661 179 -212 42 -331 74 -409 113
-77 38 -175 130 -211 199 l-24 47 74 73 c195 190 309 409 390 745 8 33 16 43
40 52 41 14 96 74 130 141 66 132 78 327 26 434 -26 52 -26 55 -17 180 18 258
-15 559 -79 725 -63 161 -165 261 -269 261 -24 0 -34 8 -56 45 -38 66 -131
174 -204 237 -121 106 -242 161 -428 193 -104 18 -346 18 -456 -1z"/>
</g>
</svg>
